
<svg xmlns="http://www.w3.org/2000/svg" viewBox="0 0 400 400" fill="none">
  <defs>
    <linearGradient id="ropeGradient" x1="0%" y1="0%" x2="100%" y2="100%">
      <stop offset="0%" style="stop-color:#D4A574;stop-opacity:1" />
      <stop offset="50%" style="stop-color:#B8956A;stop-opacity:1" />
      <stop offset="100%" style="stop-color:#8B7355;stop-opacity:1" />
    </linearGradient>
    <linearGradient id="handGradient" x1="0%" y1="0%" x2="100%" y2="100%">
      <stop offset="0%" style="stop-color:#FDBCB4;stop-opacity:1" />
      <stop offset="50%" style="stop-color:#F8A5A0;stop-opacity:1" />
      <stop offset="100%" style="stop-color:#E8958F;stop-opacity:1" />
    </linearGradient>
  </defs>
  
  <!-- Background circle for contrast -->
  <circle cx="200" cy="200" r="190" fill="rgba(0,0,0,0.1)" stroke="none"/>
  
  <!-- Left hand -->
  <path d="M120 160 Q110 150 105 165 Q100 180 110 190 L130 210 Q140 220 155 215 Q170 210 175 195 Q180 180 170 170 L150 150 Q140 145 130 150 Z" fill="url(#handGradient)" stroke="#D4958A" stroke-width="2"/>
  
  <!-- Right hand -->
  <path d="M280 160 Q290 150 295 165 Q300 180 290 190 L270 210 Q260 220 245 215 Q230 210 225 195 Q220 180 230 170 L250 150 Q260 145 270 150 Z" fill="url(#handGradient)" stroke="#D4958A" stroke-width="2"/>
  
  <!-- Rope binding - horizontal wraps -->
  <ellipse cx="200" cy="185" rx="85" ry="12" fill="url(#ropeGradient)" stroke="#8B7355" stroke-width="1"/>
  <ellipse cx="200" cy="200" rx="88" ry="14" fill="url(#ropeGradient)" stroke="#8B7355" stroke-width="1"/>
  <ellipse cx="200" cy="215" rx="85" ry="12" fill="url(#ropeGradient)" stroke="#8B7355" stroke-width="1"/>
  
  <!-- Rope binding - crossing pattern -->
  <path d="M130 180 Q200 190 270 180 Q200 210 130 200 Q200 190 270 200 Q200 180 130 190" fill="none" stroke="url(#ropeGradient)" stroke-width="8" stroke-linecap="round"/>
  
  <!-- Rope knot in center -->
  <circle cx="200" cy="200" r="15" fill="url(#ropeGradient)" stroke="#8B7355" stroke-width="2"/>
  <path d="M190 195 Q200 185 210 195 Q200 205 190 195" fill="#8B7355"/>
  <path d="M190 205 Q200 215 210 205 Q200 195 190 205" fill="#8B7355"/>
  
  <!-- Wrist details -->
  <ellipse cx="140" cy="170" rx="20" ry="8" fill="none" stroke="#D4958A" stroke-width="1.5"/>
  <ellipse cx="260" cy="170" rx="20" ry="8" fill="none" stroke="#D4958A" stroke-width="1.5"/>
  
  <!-- Shadow/depth effects -->
  <ellipse cx="200" cy="230" rx="80" ry="10" fill="rgba(0,0,0,0.2)" opacity="0.5"/>
</svg>
